<svg xmlns="http://www.w3.org/2000/svg" xmlns:xlink="http://www.w3.org/1999/xlink" version="1.1" width="256" height="256" viewBox="0 0 256 256" xml:space="preserve">

<defs>
</defs>
<g style="stroke: none; stroke-width: 0; stroke-dasharray: none; stroke-linecap: butt; stroke-linejoin: miter; stroke-miterlimit: 10; fill: none; fill-rule: nonzero; opacity: 1;" transform="translate(1.4065934065934016 1.4065934065934016) scale(2.81 2.81)" >
	<path d="M 85.999 90 c -0.489 0 -0.983 -0.09 -1.456 -0.274 l -16.111 -6.302 C 61.383 87.732 53.327 90 45 90 C 20.187 90 0 69.813 0 45 C 0 20.187 20.187 0 45 0 c 24.813 0 45 20.187 45 45 c 0 8.327 -2.268 16.383 -6.576 23.432 l 6.302 16.111 c 0.578 1.479 0.227 3.162 -0.897 4.285 C 88.064 89.593 87.041 90 85.999 90 z M 45 8 C 24.598 8 8 24.598 8 45 c 0 20.402 16.598 37 37 37 c 7.438 0 14.609 -2.198 20.74 -6.356 c 1.091 -0.741 2.477 -0.893 3.702 -0.415 l 9.504 3.718 l -3.718 -9.504 c -0.479 -1.228 -0.324 -2.612 0.415 -3.702 C 79.802 59.609 82 52.438 82 45 C 82 24.598 65.402 8 45 8 z" style="stroke: none; stroke-width: 1; stroke-dasharray: none; stroke-linecap: butt; stroke-linejoin: miter; stroke-miterlimit: 10; fill: rgb(0,0,0); fill-rule: nonzero; opacity: 1;" transform=" matrix(1 0 0 1 0 0) " stroke-linecap="round" />
</g>
</svg>